<svg width="62" height="62" viewBox="0 0 62 62" fill="none" xmlns="http://www.w3.org/2000/svg">
<path d="M62 11C62 8.08262 60.8411 5.28472 58.7782 3.22182C56.7153 1.15892 53.9174 0 51 0H48C47.2044 2.37122e-08 46.4413 0.31607 45.8787 0.878679C45.3161 1.44129 45 2.20435 45 3C45 3.79565 45.3161 4.55871 45.8787 5.12132C46.4413 5.68393 47.2044 6 48 6H51C52.3261 6 53.5979 6.52678 54.5355 7.46447C55.4732 8.40215 56 9.67392 56 11V14C56 14.7956 56.3161 15.5587 56.8787 16.1213C57.4413 16.6839 58.2044 17 59 17C59.7956 17 60.5587 16.6839 61.1213 16.1213C61.6839 15.5587 62 14.7956 62 14V11Z" fill="#D7D7D7"/>
<path d="M14 0H11C8.08262 0 5.28472 1.15892 3.22182 3.22182C1.15892 5.28472 0 8.08262 0 11V14C2.37122e-08 14.7956 0.31607 15.5587 0.878679 16.1213C1.44129 16.6839 2.20435 17 3 17C3.79565 17 4.55871 16.6839 5.12132 16.1213C5.68393 15.5587 6 14.7956 6 14V11C6 9.67392 6.52678 8.40215 7.46447 7.46447C8.40215 6.52678 9.67392 6 11 6H14C14.7956 6 15.5587 5.68393 16.1213 5.12132C16.6839 4.55871 17 3.79565 17 3C17 2.20435 16.6839 1.44129 16.1213 0.878679C15.5587 0.31607 14.7956 2.37122e-08 14 0Z" fill="#D7D7D7"/>
<path d="M14 56H11C9.67392 56 8.40215 55.4732 7.46447 54.5355C6.52678 53.5979 6 52.3261 6 51V48C6 47.2044 5.68393 46.4413 5.12132 45.8787C4.55871 45.3161 3.79565 45 3 45C2.20435 45 1.44129 45.3161 0.878679 45.8787C0.31607 46.4413 2.37122e-08 47.2044 0 48V51C0 53.9174 1.15892 56.7153 3.22182 58.7782C5.28472 60.8411 8.08262 62 11 62H14C14.7956 62 15.5587 61.6839 16.1213 61.1213C16.6839 60.5587 17 59.7956 17 59C17 58.2044 16.6839 57.4413 16.1213 56.8787C15.5587 56.3161 14.7956 56 14 56Z" fill="#D7D7D7"/>
<path d="M62 48C62 47.2044 61.6839 46.4413 61.1213 45.8787C60.5587 45.3161 59.7956 45 59 45C58.2044 45 57.4413 45.3161 56.8787 45.8787C56.3161 46.4413 56 47.2044 56 48V51C56 52.3261 55.4732 53.5979 54.5355 54.5355C53.5979 55.4732 52.3261 56 51 56H48C47.2044 56 46.4413 56.3161 45.8787 56.8787C45.3161 57.4413 45 58.2044 45 59C45 59.7956 45.3161 60.5587 45.8787 61.1213C46.4413 61.6839 47.2044 62 48 62H51C53.9174 62 56.7153 60.8411 58.7782 58.7782C60.8411 56.7153 62 53.9174 62 51V48Z" fill="#D7D7D7"/>
<path d="M46.94 19.42C42.37 14.63 36.71 12 31 12C25.29 12 19.63 14.63 15.06 19.42C14 20.48 9 26 9 31C9 36 14 41.52 15.06 42.58C19.63 47.37 25.29 50 31 50C36.71 50 42.37 47.37 46.94 42.58C48 41.52 53 36 53 31C53 26 48 20.48 46.94 19.42ZM18.64 37.6C16.57 35.2 15 32.36 15 31C15 28.49 21.39 18 31 18C32.9357 18.0111 34.8472 18.4302 36.61 19.23L37.94 19.82L19.34 38.41L18.64 37.6ZM31 44C29.0643 43.9889 27.1528 43.5698 25.39 42.77L24.06 42.18L42.66 23.59L43.36 24.4C45.43 26.8 47 29.64 47 31C47 33.51 40.61 44 31 44Z" fill="#D7D7D7"/>
</svg>
