<svg width="100" height="100" viewBox="0 0 100 100" fill="none" xmlns="http://www.w3.org/2000/svg">
<path d="M78.5 97.7C78 97.7 77.5 97.3 77.5 96.7C77.5 96.1 77.9 95.7 78.5 95.7H83.6001C84.1001 95.7 84.6001 96.1 84.6001 96.7C84.6001 97.3 84.2001 97.7 83.6001 97.7H78.5ZM73.5 97.7H68.5C68 97.7 67.5 97.3 67.5 96.7C67.5 96.1 67.9 95.7 68.5 95.7H73.5C74 95.7 74.5 96.1 74.5 96.7C74.5 97.3 74.1 97.7 73.5 97.7ZM63.5 97.7H58.5C58 97.7 57.5 97.3 57.5 96.7C57.5 96.1 57.9 95.7 58.5 95.7H63.5C64 95.7 64.5 96.1 64.5 96.7C64.5 97.3 64 97.7 63.5 97.7ZM53.4001 97.7C51.6001 97.7 49.8001 97.3 48.1001 96.6C47.6001 96.4 47.4001 95.8 47.6001 95.3C47.8001 94.8 48.4001 94.6 48.9001 94.8C50.3001 95.4 51.9001 95.7 53.4001 95.7C53.9001 95.7 54.4 96.1 54.3 96.7C54.4 97.3 54.0001 97.7 53.4001 97.7ZM88.5 96.8C88.1 96.8 87.8001 96.6 87.6001 96.2C87.4001 95.7 87.6001 95.1 88.1001 95C89.6001 94.4 90.9 93.6 92 92.5C92.4 92.1 93.0001 92.2 93.4001 92.5C93.8001 92.9 93.7001 93.5 93.4001 93.9C92.1001 95.1 90.6001 96.1 88.9001 96.8C88.8001 96.8 88.6 96.8 88.5 96.8ZM44.3 94C44.1 94 43.8001 93.9 43.6001 93.7C42.3001 92.5 41.2 91 40.5 89.4C40.3 88.9 40.5 88.3 41 88.1C41.5 87.9 42.1 88.1 42.3 88.6C43 90 43.9 91.3 45 92.4C45.4 92.8 45.4 93.4 45 93.8C44.9 93.9 44.6 94 44.3 94ZM95.7 90.1C95.6 90.1 95.4 90.1 95.3 90C94.8 89.8 94.6 89.2 94.8 88.7C95.5 87.3 95.9 85.8 96 84.2C96 83.7 96.5 83.3 97 83.3C97.5 83.3 97.9001 83.8 97.9001 84.3C97.8001 86.1 97.3 87.8 96.5 89.5C96.4 89.9 96.1 90.1 95.7 90.1ZM40.2 85.1C39.7 85.1 39.3 84.7 39.2 84.2C39.2 83.9 39.2 83.6 39.2 83.3V79.1C39.2 78.6 39.6 78.1 40.2 78.1C40.8 78.1 41.2 78.5 41.2 79.1V83.3C41.2 83.6 41.2 83.8 41.2 84.1C41.2 84.6 40.8 85.1 40.2 85.1ZM97 80.2C96.5 80.2 96 79.8 96 79.2V74.2C96 73.7 96.4 73.2 97 73.2C97.6 73.2 98 73.6 98 74.2V79.2C98 79.8 97.5 80.2 97 80.2ZM40.2 75.1C39.7 75.1 39.2 74.7 39.2 74.1V69.1C39.2 68.6 39.6 68.1 40.2 68.1C40.8 68.1 41.2 68.5 41.2 69.1V74.1C41.1 74.7 40.7 75.1 40.2 75.1ZM97 70.2C96.5 70.2 96 69.8 96 69.2V64.2C96 63.7 96.4 63.2 97 63.2C97.6 63.2 98 63.6 98 64.2V69.2C98 69.8 97.5 70.2 97 70.2ZM40.2 65C39.7 65 39.2 64.6 39.2 64V59C39.2 58.5 39.6 58 40.2 58C40.8 58 41.2 58.4 41.2 59V64C41.1 64.6 40.7 65 40.2 65ZM97 60.2C96.5 60.2 96 59.8 96 59.2V54.2C96 53.7 96.4 53.2 97 53.2C97.6 53.2 98 53.6 98 54.2V59.2C98 59.7 97.5 60.2 97 60.2ZM97 50.1C96.5 50.1 96 49.7 96 49.1V44.1C96 43.6 96.4 43.1 97 43.1C97.6 43.1 98 43.5 98 44.1V49.1C98 49.7 97.5 50.1 97 50.1ZM40.2 45C39.7 45 39.2 44.6 39.2 44V39C39.2 38.5 39.6 38 40.2 38C40.8 38 41.2 38.4 41.2 39V44C41.1 44.5 40.7 45 40.2 45ZM97 40.1C96.5 40.1 96 39.7 96 39.1V34.9C96 34.6 96 34.4 96 34.1C96 33.6 96.4001 33.1 96.9001 33.1C97.4001 33.1 97.9001 33.5 97.9001 34C97.9001 34.3 97.9001 34.6 97.9001 34.9V39.1C98.0001 39.6 97.5 40.1 97 40.1ZM40.2 34.9C39.6 34.9 39.2 34.4 39.2 33.9C39.3 32.1 39.8001 30.4 40.6001 28.7C40.8001 28.2 41.4001 28 41.9001 28.3C42.4001 28.5 42.6 29.1 42.3 29.6C41.6 31 41.2001 32.5 41.1001 34.1C41.1001 34.5 40.7 34.9 40.2 34.9ZM95.7 30.2C95.2999 30.2 95 30 94.8 29.6C94.1 28.2 93.2001 26.9 92.1001 25.8C91.7001 25.4 91.7001 24.8 92.1001 24.4C92.5001 24 93.1 24 93.5 24.4C94.8 25.6 95.9001 27.1 96.6001 28.7C96.8001 29.2 96.6001 29.8 96.1001 30C96.0001 30.2 95.9 30.2 95.7 30.2ZM44.5 26.1C44.2 26.1 44 26 43.8 25.8C43.4 25.4 43.5 24.8 43.8 24.4C45.1 23.2 46.6 22.2 48.3 21.5C48.8 21.3 49.4 21.5 49.5 22C49.7 22.5 49.5 23.1 49 23.2C47.5 23.8 46.2001 24.6 45.1001 25.7C44.9001 26 44.7 26.1 44.5 26.1ZM88.6001 23.5C88.5001 23.5 88.4 23.5 88.2 23.4C86.7999 22.8 85.2 22.5 83.7 22.5C83.2 22.5 82.7001 22.1 82.8 21.5C82.8 21 83.2001 20.6 83.8 20.6C85.6 20.6 87.4 21 89 21.7C89.5 21.9 89.7 22.5 89.5 23C89.4 23.2 89.0001 23.5 88.6001 23.5ZM78.7 22.5H73.7C73.2 22.5 72.7 22.1 72.7 21.5C72.7 21 73.1 20.5 73.7 20.5H78.7C79.2 20.5 79.7 20.9 79.7 21.5C79.7 22 79.2 22.5 78.7 22.5ZM68.7 22.5H63.7C63.2 22.5 62.7 22.1 62.7 21.5C62.7 21 63.1 20.5 63.7 20.5H68.7C69.2 20.5 69.7 20.9 69.7 21.5C69.6 22 69.2 22.5 68.7 22.5ZM58.6001 22.5H53.6001C53.1001 22.5 52.6001 22.1 52.6001 21.5C52.6001 21 53 20.5 53.5 20.5H58.5C59 20.5 59.5 20.9 59.5 21.5C59.6 22 59.1001 22.5 58.6001 22.5Z" fill="#D7D7D7"/>
<path d="M81 66.8998L77.3001 69.0999L77.4002 68.2999C79.2002 57.4999 71.9001 46.4999 61.1001 43.7999C59.4001 43.3999 57.6001 43.0999 55.8001 43.0999C46.3001 43.0999 46.6001 43.7999 55.8001 43.7999C57.5001 43.7999 59.2002 43.9998 60.9002 44.3998C71.4002 47.0998 78.4001 57.3998 76.8001 67.8998L76.6001 68.9999L74.4002 65.2999C74.3002 65.1999 74.2001 65.0999 74.1001 65.0999C74.0001 65.0999 74.0002 65.0999 73.9002 65.0999C73.8002 65.0999 73.8 65.1999 73.7 65.2999C73.7 65.3999 73.7 65.4999 73.7 65.5999L76.3001 69.9999C76.4001 70.1999 76.6001 70.1999 76.8001 70.0999L81.2 67.4999C81.4 67.3999 81.4001 67.1999 81.3001 66.9999C81.4001 66.8999 81.2 66.7998 81 66.8998Z" fill="#D7D7D7"/>
<path d="M82.2 66.5998C82 66.2998 81.6 66.0998 81.2 66.0998C81 66.0998 80.8002 66.1998 80.6002 66.2998L78.3001 67.5998C79.7001 56.6998 72.2001 45.7998 61.3001 42.9998C59.5001 42.4998 57.7002 42.2998 55.9002 42.2998C46.1002 42.2998 47.1002 44.4998 55.9002 44.4998C57.5002 44.4998 59.2001 44.6998 60.8001 45.0998C70.5001 47.5998 77.1 56.8998 76.2 66.5998L75.1002 64.7998C74.9002 64.4998 74.5002 64.2998 74.1002 64.2998C73.9002 64.2998 73.7001 64.3998 73.5001 64.4998C73.2001 64.6998 73.1001 64.8998 73.0001 65.1998C72.9001 65.4998 73.0002 65.7998 73.1002 65.9998L75.7 70.3998C75.9 70.6998 76.3 70.8998 76.7 70.8998C76.9 70.8998 77.1001 70.7998 77.3001 70.6998L81.7 68.0998C82 67.8998 82.1 67.6998 82.2 67.3998C82.4 67.1998 82.3 66.8998 82.2 66.5998ZM81.4002 67.4998L77.0001 70.0998C76.8001 70.1998 76.6001 70.0998 76.5001 69.9998L73.9002 65.5998C73.9002 65.4998 73.8002 65.3998 73.9002 65.2998C73.9002 65.1998 74.0002 65.0998 74.1002 65.0998C74.2002 65.0998 74.2001 65.0998 74.3001 65.0998C74.4001 65.0998 74.5002 65.1998 74.6002 65.2998L76.8001 68.9998L77.0001 67.8998C78.6001 57.3998 71.6002 47.0998 61.1002 44.3998C59.4002 43.9998 57.7001 43.7998 56.0001 43.7998C46.8001 43.7998 46.5001 43.0998 56.0001 43.0998C57.8001 43.0998 59.5001 43.2998 61.3001 43.7998C72.1001 46.4998 79.4002 57.4998 77.6002 68.2998L77.5001 69.0998L81.2 66.8998C81.4 66.7998 81.6 66.8998 81.7 66.9998C81.6 67.1998 81.6002 67.3998 81.4002 67.4998Z" fill="#D7D7D7"/>
<path d="M45.4001 2.3999H15.4001C8.00015 2.3999 2 8.39993 2 15.7999V64.2C2 71.6 8.00015 77.5999 15.4001 77.5999H45.4001C52.8001 77.5999 58.8 71.6 58.8 64.2V15.7999C58.8 8.39993 52.8001 2.3999 45.4001 2.3999ZM40 51.5999H34.4001L37.7 59.2999C37.7999 59.5999 37.7001 59.8999 37.4001 59.9999L33.8 61.4999C33.7 61.4999 33.7001 61.4999 33.6001 61.4999C33.5001 61.4999 33.5001 61.4999 33.4001 61.4999C33.3001 61.3999 33.2001 61.2999 33.1001 61.2L29.7 53.2L25.5 56.7999C25.4 56.8999 25.2 56.9999 25 56.9999C24.5 56.9999 24.2 56.6 24.2 56.2V35.5999C24.2 34.8999 25.0001 34.4999 25.6001 34.9999L40.7 50.0999C40.9 50.3999 40.9001 50.6 40.9001 50.7C40.9001 51.2999 40.5 51.5999 40 51.5999Z" fill="#D7D7D7"/>
</svg>
