<svg width="96" height="78" viewBox="0 0 96 78" fill="none" xmlns="http://www.w3.org/2000/svg">
<path d="M55.6 19.1001C55.7 19.6001 55.8 20.2001 55.8 20.8001C55.8 25.1001 52.3 28.6001 48 28.6001C47.4 28.6001 46.9 28.5001 46.3 28.4001L41.5 33.2001C43.5 33.7001 45.7 34.0001 48 34.0001C58.9 34.0001 66.4 27.9001 70 24.0001C71.7 22.2001 71.7 19.5001 70 17.7001C68.4 16.0001 66 13.8001 62.9 11.9001L55.6 19.1001Z" fill="#D7D7D7"/>
<path d="M65.7 1.1001C64.7 0.100098 63.2 0.100098 62.2 1.1001L54.8 8.5001C52.7 8.0001 50.4 7.7001 47.9 7.7001C37 7.7001 29.5 13.8001 25.9 17.7001C24.2 19.5001 24.2 22.2001 25.9 24.0001C27.6 25.8001 30 28.1001 33.3 30.0001L28.3 35.0001C27.3 36.0001 27.3 37.5001 28.3 38.5001C28.8 39.0001 29.4 39.2001 30.1 39.2001C30.7 39.2001 31.4 39.0001 31.9 38.5001L65.8 4.6001C66.7 3.7001 66.7 2.1001 65.7 1.1001ZM40.5 22.8001C40.3 22.1001 40.2 21.5001 40.2 20.8001C40.2 16.5001 43.7 13.0001 48 13.0001C48.7 13.0001 49.4 13.1001 50 13.3001L40.5 22.8001Z" fill="#D7D7D7"/>
<path d="M24.2 45.5H3.4C1.8 45.5 0.5 46.8 0.5 48.4V74.9C0.5 76.5 1.8 77.8 3.4 77.8H24.2C25.8 77.8 27.1 76.5 27.1 74.9V48.3C27 46.7 25.8 45.5 24.2 45.5ZM14.1 72.1C12.8 72.1 11.7 71 11.7 69.7C11.7 68.4 12.8 67.3 14.1 67.3C15.4 67.3 16.5 68.4 16.5 69.7C16.4 71 15.4 72.1 14.1 72.1ZM19.4 60.8C18.5 62 17.7 62.6 17.1 63C16.4 63.5 16.2 63.6 16.1 64.7C16.1 65.3 15.5 65.8 14.9 65.8H13.4C13.1 65.8 12.7 65.7 12.5 65.4C12.3 65.1 12.1 64.8 12.2 64.5C12.4 61.7 13.5 60.7 14.9 59.8C15.4 59.4 15.9 59.1 16.3 58.5C16.7 57.9 16.8 57.1 16.4 56.4C16.2 55.9 15.5 55.1 13.9 55.1C12.3 55.1 11.3 55.9 11 57.4C10.9 58 10.4 58.4 9.8 58.4H8.3C7.9 58.4 7.6 58.2 7.4 58C7.2 57.7 7.1 57.4 7.1 57C7.4 54 9.4 51 13.8 51C16.5 51 18.7 52.3 19.8 54.5C20.9 56.5 20.8 59 19.4 60.8Z" fill="#D7D7D7"/>
<path d="M58.4 45.5H37.6C36 45.5 34.7 46.8 34.7 48.4V74.9C34.7 76.5 36 77.8 37.6 77.8H58.4C60 77.8 61.3 76.5 61.3 74.9V48.3C61.3 46.7 60 45.5 58.4 45.5ZM48.3 72.1C47 72.1 45.9 71 45.9 69.7C45.9 68.4 47 67.3 48.3 67.3C49.6 67.3 50.7 68.4 50.7 69.7C50.7 71 49.6 72.1 48.3 72.1ZM53.6 60.8C52.7 62 51.9 62.6 51.3 63C50.6 63.5 50.4 63.6 50.3 64.7C50.3 65.3 49.7 65.8 49.1 65.8H47.6C47.3 65.8 46.9 65.7 46.7 65.4C46.5 65.1 46.3 64.8 46.4 64.5C46.6 61.7 47.7 60.7 49.1 59.8C49.6 59.4 50.1 59.1 50.5 58.5C50.9 57.9 51 57.1 50.6 56.4C50.4 55.9 49.7 55.1 48.1 55.1C46.5 55.1 45.5 55.9 45.2 57.4C45.1 58 44.6 58.4 44 58.4H42.5C42.1 58.4 41.8 58.2 41.6 58C41.4 57.7 41.3 57.4 41.3 57C41.7 54.1 43.7 51.1 48.1 51.1C50.8 51.1 53 52.4 54.1 54.6C55.2 56.5 55 59 53.6 60.8Z" fill="#D7D7D7"/>
<path d="M92.6 45.5H71.8C70.2 45.5 68.9 46.8 68.9 48.4V74.9C68.9 76.5 70.2 77.8 71.8 77.8H92.6C94.2 77.8 95.5 76.5 95.5 74.9V48.3C95.5 46.7 94.2 45.5 92.6 45.5ZM82.5 72.1C81.2 72.1 80.1 71 80.1 69.7C80.1 68.4 81.2 67.3 82.5 67.3C83.8 67.3 84.9 68.4 84.9 69.7C84.9 71 83.8 72.1 82.5 72.1ZM87.9 60.8C87 62 86.2 62.6 85.6 63C84.9 63.5 84.7 63.6 84.6 64.7C84.6 65.3 84 65.8 83.4 65.8H81.9C81.6 65.8 81.2 65.7 81 65.4C80.8 65.1 80.6 64.8 80.7 64.5C80.9 61.7 82 60.7 83.4 59.8C83.9 59.4 84.4 59.1 84.8 58.5C85.2 57.9 85.3 57.1 84.9 56.4C84.7 55.9 84 55.1 82.4 55.1C80.8 55.1 79.8 55.9 79.5 57.4C79.4 58 78.9 58.4 78.3 58.4H76.8C76.4 58.4 76.1 58.2 75.9 58C75.7 57.7 75.6 57.4 75.6 57C76 54.1 78 51.1 82.4 51.1C85.1 51.1 87.3 52.4 88.4 54.6C89.4 56.5 89.2 59 87.9 60.8Z" fill="#D7D7D7"/>
</svg>
