<svg width="88" height="86" viewBox="0 0 88 86" fill="none" xmlns="http://www.w3.org/2000/svg">
<path d="M34.1637 12.9061C34.1637 11.8917 34.5654 10.9188 35.2804 10.2014C35.9954 9.48411 36.9651 9.08112 37.9762 9.08112H83.3069C84.318 9.08112 85.2877 9.48411 86.0027 10.2014C86.7177 10.9188 87.1194 11.8917 87.1194 12.9061C87.1194 13.9206 86.7177 14.8935 86.0027 15.6108C85.2877 16.3281 84.318 16.7311 83.3069 16.7311H37.9762C36.9651 16.7311 35.9954 16.3281 35.2804 15.6108C34.5654 14.8935 34.1637 13.9206 34.1637 12.9061ZM24.175 1.77537C23.4607 1.06296 22.4944 0.663086 21.4872 0.663086C20.48 0.663086 19.5137 1.06296 18.7994 1.77537L13.0806 7.47462L7.39999 1.77537C6.68733 1.07453 5.72918 0.681965 4.73124 0.681965C3.73331 0.681965 2.77516 1.07453 2.06249 1.77537C1.35241 2.49203 0.953847 3.46148 0.953847 4.47199C0.953847 5.4825 1.35241 6.45196 2.06249 7.16862L7.78124 12.9061L2.06249 18.6054C1.69937 18.9616 1.41084 19.387 1.21386 19.8567C1.01688 20.3263 0.915405 20.8307 0.915405 21.3402C0.915405 21.8498 1.01688 22.3542 1.21386 22.8238C1.41084 23.2935 1.69937 23.7189 2.06249 24.0751C2.41559 24.4365 2.83666 24.7241 3.30131 24.921C3.76596 25.118 4.26495 25.2205 4.76937 25.2226C5.7617 25.1983 6.70545 24.7866 7.39999 24.0751L13.0806 18.2994L18.7994 24.0751C19.5033 24.7958 20.4625 25.2082 21.4681 25.2226C22.2254 25.227 22.9668 25.0051 23.5978 24.5851C24.2289 24.1651 24.721 23.5661 25.0113 22.8644C25.3017 22.1628 25.3773 21.3902 25.2283 20.6453C25.0794 19.9004 24.7127 19.2169 24.175 18.6819L18.4944 12.9061L24.175 7.16862C24.8851 6.45196 25.2836 5.4825 25.2836 4.47199C25.2836 3.46148 24.8851 2.49203 24.175 1.77537ZM83.3069 39.6811H37.9762C36.9651 39.6811 35.9954 40.0841 35.2804 40.8014C34.5654 41.5188 34.1637 42.4917 34.1637 43.5061C34.1637 44.5206 34.5654 45.4935 35.2804 46.2108C35.9954 46.9281 36.9651 47.3311 37.9762 47.3311H83.3069C84.318 47.3311 85.2877 46.9281 86.0027 46.2108C86.7177 45.4935 87.1194 44.5206 87.1194 43.5061C87.1194 42.4917 86.7177 41.5188 86.0027 40.8014C85.2877 40.0841 84.318 39.6811 83.3069 39.6811ZM83.3069 70.2811H37.9762C36.9651 70.2811 35.9954 70.6841 35.2804 71.4014C34.5654 72.1188 34.1637 73.0917 34.1637 74.1061C34.1637 75.1206 34.5654 76.0935 35.2804 76.8108C35.9954 77.5281 36.9651 77.9311 37.9762 77.9311H83.3069C84.318 77.9311 85.2877 77.5281 86.0027 76.8108C86.7177 76.0935 87.1194 75.1206 87.1194 74.1061C87.1194 73.0917 86.7177 72.1188 86.0027 71.4014C85.2877 70.6841 84.318 70.2811 83.3069 70.2811ZM12.89 62.0191C10.5525 62.0191 8.26743 62.7145 6.32385 64.0175C4.38026 65.3204 2.86543 67.1723 1.97089 69.339C1.07636 71.5056 0.842309 73.8898 1.29834 76.1899C1.75437 78.49 2.87999 80.6028 4.53287 82.2611C6.18576 83.9194 8.29166 85.0488 10.5843 85.5063C12.8769 85.9638 15.2532 85.729 17.4128 84.8315C19.5724 83.9341 21.4183 82.4142 22.7169 80.4643C24.0156 78.5143 24.7087 76.2218 24.7087 73.8766C24.7087 70.7318 23.4636 67.7158 21.2471 65.4921C19.0307 63.2684 16.0245 62.0191 12.89 62.0191ZM12.89 31.4191C10.5525 31.4191 8.26743 32.1145 6.32385 33.4175C4.38026 34.7204 2.86543 36.5723 1.97089 38.7389C1.07636 40.9056 0.842309 43.2898 1.29834 45.5899C1.75437 47.89 2.87999 50.0028 4.53287 51.6611C6.18576 53.3194 8.29166 54.4488 10.5843 54.9063C12.8769 55.3638 15.2532 55.129 17.4128 54.2315C19.5724 53.3341 21.4183 51.8142 22.7169 49.8643C24.0156 47.9143 24.7087 45.6218 24.7087 43.2766C24.7087 41.7195 24.403 40.1776 23.8091 38.7389C23.2151 37.3003 22.3446 35.9932 21.2471 34.8921C20.1496 33.791 18.8468 32.9176 17.4128 32.3217C15.9789 31.7258 14.4421 31.4191 12.89 31.4191Z" fill="#D9D9D9"/>
</svg>
