<svg width="99" height="109" viewBox="0 0 99 109" fill="none" xmlns="http://www.w3.org/2000/svg">
<path d="M97.5253 77.7054C96.8179 73.6043 95.5006 68.7658 93.9605 63.1054L83.1864 23.5148C81.4031 16.9624 79.9208 11.5129 78.1539 7.34596C77.8988 6.74395 77.6323 6.15486 77.3511 5.58032C85.1887 5.8834 89.9629 6.89072 93.3108 10.2387C98.0998 15.0275 98.0998 22.7349 98.0998 38.1498V59.9499C98.0998 67.551 98.0998 73.2784 97.5253 77.7054Z" fill="#F1F1F1"/>
<path d="M4.04893 44.8344C0.311049 31.0991 -1.55786 24.2314 1.61458 18.8211C4.78708 13.4107 11.7619 11.5706 25.7117 7.89022L40.5077 3.98661C54.4575 0.306281 61.4324 -1.53391 66.927 1.58975C72.4223 4.71342 74.2911 11.5811 78.0287 25.3163L88.6011 64.1655C92.3387 77.9006 94.2075 84.7687 91.0351 90.1789C87.8627 95.5891 80.8878 97.4296 66.938 101.109L52.1423 105.013C38.1924 108.694 31.2175 110.534 25.7227 107.41C20.2278 104.287 18.3589 97.4187 14.6211 83.6836L4.04893 44.8344Z" fill="#E8E8E8"/>
</svg>
